<?xml version="1.0" encoding="utf-8"?>
<svg xmlns="http://www.w3.org/2000/svg" xmlns:svg="http://www.w3.org/2000/svg" version="1.1" viewBox="0 0 1400 340">
	<title>The titlepage for the Standard Ebooks edition of The Warden, by Anthony Trollope</title>
	<g aria-label="THE WARDEN">
		<path d="m 360.1747,68.245613 h 18.33918 V 130 h 17.59065 V 68.245613 h 18.33918 V 52.807016 H 360.1747 Z"/>
		<path d="m 443.36915,99.029239 h 24.88889 V 130 h 17.59064 V 52.807016 H 468.25804 V 83.590642 H 443.36915 V 52.807016 H 425.7785 V 130 h 17.59065 z"/>
		<path d="M 546.21418,52.807016 H 502.05044 V 130 h 44.16374 v -15.4386 h -26.5731 V 99.029239 h 25.45029 V 83.590642 H 519.64108 V 68.245613 h 26.5731 z"/>
		<path d="m 643.09868,130 h 19.46199 l 21.98831,-77.192984 h -19.46199 l -13.19298,52.959064 h -0.46784 L 637.39108,52.807016 h -13.28655 l -14.03509,52.959064 h -0.46783 L 596.40862,52.807016 H 576.85307 L 598.84137,130 h 19.55556 l 12.35088,-43.321638 z"/>
		<path d="m 724.38376,52.807016 h -16.2807 L 676.94517,130 h 18.90058 l 5.7076,-15.4386 h 29.38012 L 736.64107,130 h 18.90059 z m 0.56141,46.31579 h -17.40351 l 8.60819,-22.45614 h 0.18713 z"/>
		<path d="M 763.46125,52.807016 V 130 h 17.59064 V 99.497075 L 804.63084,130 h 22.36258 l -26.5731,-31.906433 c 9.45029,-2.994152 15.81286,-10.760234 15.81286,-22.362574 0,-15.157895 -10.8538,-22.923977 -25.16959,-22.923977 z m 17.59064,34.245615 V 66.842104 h 2.05848 c 6.64328,0 14.59649,0.467836 14.59649,10.105263 0,9.637428 -7.95321,10.105264 -14.59649,10.105264 z"/>
		<path d="M 835.52998,52.807016 V 130 h 22.36257 c 21.23977,0 38.92398,-16.09357 38.92398,-38.643276 0,-22.45614 -17.77778,-38.549708 -38.92398,-38.549708 z M 853.12062,114.2807 V 68.526315 h 2.71345 c 13.09942,0 21.9883,10.011696 21.9883,22.923977 -0.0936,12.912278 -8.98245,22.830408 -21.9883,22.830408 z"/>
		<path d="M 953.77267,52.807016 H 909.60892 V 130 h 44.16375 v -15.4386 h -26.5731 V 99.029239 h 25.45029 V 83.590642 H 927.19957 V 68.245613 h 26.5731 z"/>
		<path d="m 986.47587,82.093566 h 0.18714 L 1017.3531,130 h 17.5906 V 52.807016 h -17.5906 v 47.906434 h -0.1872 L 986.47587,52.807016 H 968.88523 V 130 h 17.59064 z"/>
	</g>
	<g aria-label="ANTHONY TROLLOPE">
		<path d="M 312.47917,232.10526 H 300.26864 L 276.90022,290 h 14.17544 l 4.2807,-11.57895 h 22.03509 L 321.67215,290 h 14.17544 z m 0.42105,34.73685 H 299.84759 L 306.30373,250 h 0.14035 z"/>
		<path d="m 356.23027,254.07018 h 0.14035 L 379.38816,290 h 13.19298 v -57.89474 h -13.19298 v 35.92983 h -0.14035 L 356.23027,232.10526 H 343.03729 V 290 h 13.19298 z"/>
		<path d="m 398.9386,243.68421 h 13.75439 V 290 h 13.19298 v -46.31579 h 13.75438 V 232.10526 H 398.9386 Z"/>
		<path d="m 462.58444,266.77193 h 18.66667 V 290 h 13.19298 v -57.89474 h -13.19298 v 23.08772 H 462.58444 V 232.10526 H 449.39146 V 290 h 13.19298 z"/>
		<path d="m 505.2489,261.01754 c 0,16.91228 12.07018,30.03509 29.19298,30.03509 16.63158,0 29.12281,-13.12281 29.12281,-30.03509 0,-16.91228 -13.05263,-29.96491 -29.12281,-29.96491 -15.92982,0 -29.19298,13.05263 -29.19298,29.96491 z m 14.24561,0 c 0,-8.63157 4.77193,-17.26315 14.94737,-17.26315 10.24562,0 14.87719,8.63158 14.87719,17.26315 0,8.63158 -4.35087,17.26316 -14.87719,17.26316 -10.80702,0 -14.94737,-8.63158 -14.94737,-17.26316 z"/>
		<path d="m 587.57895,254.07018 h 0.14035 L 610.73684,290 h 13.19298 v -57.89474 h -13.19298 v 35.92983 h -0.14035 L 587.57895,232.10526 H 574.38596 V 290 h 13.19299 z"/>
		<path d="m 624.74232,232.10526 21.33334,31.92983 V 290 h 13.19298 v -25.96491 l 21.33333,-31.92983 h -15.85965 l -12.07017,18.52632 -12.07018,-18.52632 z"/>
		<path d="m 704.8432,243.68421 h 13.75438 V 290 h 13.19298 v -46.31579 h 13.75439 V 232.10526 H 704.8432 Z"/>
		<path d="M 755.29606,232.10526 V 290 h 13.19298 V 267.12281 L 786.17325,290 h 16.77193 l -19.92982,-23.92982 c 7.08772,-2.24562 11.85965,-8.07018 11.85965,-16.77193 0,-11.36842 -8.14035,-17.19299 -18.8772,-17.19299 z m 13.19298,25.68421 v -15.15789 h 1.54386 c 4.98246,0 10.94737,0.35088 10.94737,7.57895 0,7.22807 -5.96491,7.57894 -10.94737,7.57894 z"/>
		<path d="m 808.00108,261.01754 c 0,16.91228 12.07018,30.03509 29.19298,30.03509 16.63158,0 29.12281,-13.12281 29.12281,-30.03509 0,-16.91228 -13.05263,-29.96491 -29.12281,-29.96491 -15.92982,0 -29.19298,13.05263 -29.19298,29.96491 z m 14.24562,0 c 0,-8.63157 4.77193,-17.26315 14.94736,-17.26315 10.24562,0 14.8772,8.63158 14.8772,17.26315 0,8.63158 -4.35088,17.26316 -14.8772,17.26316 -10.80701,0 -14.94736,-8.63158 -14.94736,-17.26316 z"/>
		<path d="M 890.33114,232.10526 H 877.13816 V 290 h 33.12281 v -11.57895 h -19.92983 z"/>
		<path d="M 934.94186,232.10526 H 921.74888 V 290 h 33.12281 v -11.57895 h -19.92983 z"/>
		<path d="m 963.76317,261.01754 c 0,16.91228 12.07017,30.03509 29.19298,30.03509 16.63155,0 29.12285,-13.12281 29.12285,-30.03509 0,-16.91228 -13.0527,-29.96491 -29.12285,-29.96491 -15.92983,0 -29.19298,13.05263 -29.19298,29.96491 z m 14.24561,0 c 0,-8.63157 4.77193,-17.26315 14.94737,-17.26315 10.24565,0 14.87715,8.63158 14.87715,17.26315 0,8.63158 -4.3508,17.26316 -14.87715,17.26316 -10.80702,0 -14.94737,-8.63158 -14.94737,-17.26316 z"/>
		<path d="M 1032.9002,232.10526 V 290 h 13.193 v -21.47368 h 7.9298 c 11.2982,0 19.7895,-6.66667 19.7895,-18.5965 0,-11.99999 -8.4913,-17.82456 -19.7895,-17.82456 z M 1046.0932,258 v -15.36842 h 3.7193 c 5.1929,0 10.1052,1.75439 10.1052,7.7193 0,5.89473 -4.9123,7.64912 -10.1052,7.64912 z"/>
		<path d="m 1117.761,232.10526 h -33.1228 V 290 h 33.1228 v -11.57895 h -19.9299 v -11.64912 h 19.0878 v -11.57895 h -19.0878 v -11.50877 h 19.9299 z"/>
	</g>
</svg>
